# File created by Blade
# Date/Time:  Wed Apr 08 16:19:59 2015
# Frame Rate: 120.000 fps
#------------------------------------------------------
:FULLY-SPECIFIED
:DEGREES
3171
root 25.245013 33.264559 -3.648277 363.358370 -64.004329 -688.907685
Spine -15.629721 -20.561740 -0.245420
Head 10.732402 -13.075506 -0.936574
LeftShoulder -16.032311 37.043665 25.758913
LeftArm 77.345589 -57.776205 -78.056360
LeftForeArm 4.218986 -0.000000 36.905007
LeftHand 15.506774 -0.000000 13.525532
LeftHandThumb1 -26.253704 0.000000 33.147579
RightShoulder -8.478639 6.398070 -34.994703
RightArm 15.041532 18.299826 37.377999
RightForeArm -17.191770 0.000000 34.836470
RightHand 13.333737 -0.000000 -11.244115
RightHandThumb1 -24.326973 -0.000000 -32.862282
LeftUpLeg -5.355280 -0.889881 -3.936549
LeftLeg 4.426417 -0.000000 -0.000000
LeftFoot 2.724068 7.458302 -27.752835
LeftToeBase -11.344235 -0.000000 0.000000
RightUpLeg -39.032046 -17.410527 2.835836
RightLeg 1.077672 -0.000000 -0.000000
RightFoot -7.973831 -23.290432 11.342096
RightToeBase 4.165941 -0.000000 -0.000000
3172
root 25.289156 33.242983 -3.638878 363.388204 -64.401787 -689.593235
Spine -15.693412 -20.313250 -0.172595
Head 11.337516 -12.917734 -0.942391
LeftShoulder -16.189416 37.051438 25.947079
LeftArm 77.867725 -58.298737 -78.028363
LeftForeArm 4.562451 -0.000000 37.190474
LeftHand 15.414129 0.000000 14.144128
LeftHandThumb1 -26.253704 0.000000 33.147579
RightShoulder -8.490907 6.499503 -35.140125
RightArm 15.231373 18.291292 37.072819
RightForeArm -17.726912 -0.000000 34.735586
RightHand 13.272085 -0.000000 -11.588561
RightHandThumb1 -24.326973 -0.000000 -32.862282
LeftUpLeg -5.332019 -1.350238 -3.966165
LeftLeg 4.609785 -0.000000 -0.000000
LeftFoot 2.162045 7.459538 -27.535494
LeftToeBase -11.729046 -0.000000 0.000000
RightUpLeg -38.643080 -17.240611 3.072884
RightLeg 1.288434 -0.000000 -0.000000
RightFoot -7.959488 -23.072246 11.325786
RightToeBase 4.447668 -0.000000 -0.000000
3173
root 25.333711 33.220609 -3.627698 363.397313 -64.803241 -690.229260
Spine -15.790348 -20.095939 -0.094898
Head 11.956836 -12.721781 -0.964178
LeftShoulder -16.331099 37.048649 26.148097
LeftArm 78.346452 -58.824884 -77.981587
LeftForeArm 4.805688 0.000000 37.411864
LeftHand 15.340209 -0.000000 14.573037
LeftHandThumb1 -26.253704 0.000000 33.147579
RightShoulder -8.472542 6.599649 -35.333786
RightArm 15.391945 18.231527 36.798057
RightForeArm -18.202620 -0.000000 34.660299
RightHand 13.297340 0.000000 -12.076934
RightHandThumb1 -24.326973 -0.000000 -32.862282
LeftUpLeg -5.283175 -1.801329 -4.000770
LeftLeg 4.763920 -0.000000 -0.000000
LeftFoot 1.670476 7.642132 -27.351688
LeftToeBase -12.117738 -0.000000 0.000000
RightUpLeg -38.306873 -17.121258 3.323652
RightLeg 1.527096 -0.000000 -0.000000
RightFoot -7.944636 -22.776499 11.448426
RightToeBase 4.149055 -0.000000 -0.000000
3174
root 25.375559 33.198503 -3.615864 363.439190 -65.261125 -690.883247
Spine -15.893805 -19.849445 0.015614
Head 12.527666 -12.486218 -0.989465
LeftShoulder -16.503893 36.904944 26.314054
LeftArm 78.504707 -59.365028 -77.612335
LeftForeArm 5.147966 0.000000 37.509989
LeftHand 15.654373 -0.000000 14.713085
LeftHandThumb1 -26.253704 0.000000 33.147579
RightShoulder -8.629157 7.204782 -35.639377
RightArm 15.552425 17.775866 36.537644
RightForeArm -18.710451 -0.000000 34.354160
RightHand 13.237036 -0.000000 -12.221090
RightHandThumb1 -24.326973 -0.000000 -32.862282
LeftUpLeg -5.173477 -2.227955 -4.007215
LeftLeg 4.841983 -0.000000 -0.000000
LeftFoot 1.262441 7.934976 -27.171247
LeftToeBase -12.448402 -0.000000 0.000000
RightUpLeg -37.971442 -16.900895 3.546927
RightLeg 1.773696 -0.000000 -0.000000
RightFoot -7.946448 -22.560997 11.530515
RightToeBase 4.107382 -0.000000 -0.000000
3175
root 25.426688 33.177575 -3.603738 363.415870 -65.709452 -691.398522
Spine -16.037338 -19.641330 0.090617
Head 13.079933 -12.224533 -0.996699
LeftShoulder -16.749506 36.779223 26.414845
LeftArm 78.701540 -59.870397 -77.202809
LeftForeArm 5.321752 -0.000000 37.620485
LeftHand 15.534602 -0.000000 14.819253
LeftHandThumb1 -26.253704 0.000000 33.147579
RightShoulder -8.611421 7.429798 -35.882537
RightArm 15.685003 17.755924 36.235566
RightForeArm -19.040302 -0.000000 34.204379
RightHand 13.310177 -0.000000 -12.309214
RightHandThumb1 -24.326973 -0.000000 -32.862282
LeftUpLeg -5.095608 -2.733016 -4.055364
LeftLeg 4.884978 -0.000000 -0.000000
LeftFoot 0.901129 8.314173 -26.848336
LeftToeBase -12.606574 -0.000000 0.000000
RightUpLeg -37.734870 -16.669055 3.709921
RightLeg 2.077506 -0.000000 -0.000000
RightFoot -7.972644 -22.386756 11.591889
RightToeBase 4.150389 -0.000000 -0.000000
3176
root 25.475242 33.154699 -3.591297 363.448473 -66.186338 -692.011009
Spine -16.156932 -19.380110 0.192931
Head 13.685081 -11.955492 -0.996195
LeftShoulder -16.564315 36.182849 27.012851
LeftArm 77.537324 -60.357135 -76.017184
LeftForeArm 5.669862 -0.000000 37.854156
LeftHand 15.683124 0.000000 15.065537
LeftHandThumb1 -26.253704 0.000000 33.147579
RightShoulder -8.631864 7.897893 -36.195297
RightArm 15.696623 17.547783 35.923150
RightForeArm -19.418884 -0.000000 34.034863
RightHand 13.265006 -0.000000 -12.181139
RightHandThumb1 -24.326973 -0.000000 -32.862282
LeftUpLeg -4.919994 -3.113600 -4.050376
LeftLeg 4.878187 -0.000000 -0.000000
LeftFoot 0.637872 8.552023 -26.553095
LeftToeBase -12.926611 -0.000000 0.000000
RightUpLeg -37.454754 -16.394152 3.890301
RightLeg 2.388928 -0.000000 -0.000000
RightFoot -8.025440 -22.246056 11.693058
RightToeBase 4.095292 -0.000000 -0.000000
3177
root 25.524793 33.129569 -3.581000 363.548966 -66.688999 -692.687569
Spine -16.261569 -19.057262 0.295716
Head 14.284347 -11.752422 -0.956164
LeftShoulder -16.551888 35.956397 27.377138
LeftArm 77.431758 -60.880083 -75.592471
LeftForeArm 5.910933 -0.000000 37.912499
LeftHand 16.102520 -0.000000 15.107480
LeftHandThumb1 -26.253704 0.000000 33.147579
RightShoulder -8.649661 8.169063 -36.414242
RightArm 15.822289 17.382392 35.485391
RightForeArm -19.916809 -0.000000 33.688493
RightHand 13.206495 0.000000 -12.603574
RightHandThumb1 -24.326973 -0.000000 -32.862282
LeftUpLeg -4.708744 -3.438193 -3.998689
LeftLeg 4.845467 -0.000000 -0.000000
LeftFoot 0.470993 8.558188 -26.422503
LeftToeBase -13.716102 -0.000000 0.000000
RightUpLeg -37.215997 -16.110744 4.115128
RightLeg 2.758931 -0.000000 -0.000000
RightFoot -8.090697 -22.101080 11.745384
RightToeBase 4.173303 -0.000000 -0.000000
3178
root 25.577694 33.104578 -3.572807 363.723592 -67.185504 -693.392061
Spine -16.393447 -18.772876 0.442997
Head 14.811184 -11.516882 -0.910010
LeftShoulder -16.610716 35.692032 27.674554
LeftArm 77.200931 -61.379151 -75.013543
LeftForeArm 6.146599 -0.000000 37.980609
LeftHand 16.128805 -0.000000 15.406452
LeftHandThumb1 -26.253704 0.000000 33.147579
RightShoulder -8.687869 8.474762 -36.665381
RightArm 15.957413 17.306699 35.097396
RightForeArm -20.223408 -0.000000 33.425141
RightHand 13.084719 -0.000000 -12.590904
RightHandThumb1 -24.326973 -0.000000 -32.862282
LeftUpLeg -4.521777 -3.812417 -3.919121
LeftLeg 4.820758 -0.000000 -0.000000
LeftFoot 0.421293 8.449555 -26.295819
LeftToeBase -14.643058 -0.000000 0.000000
RightUpLeg -37.044939 -15.826081 4.358291
RightLeg 3.152550 -0.000000 -0.000000
RightFoot -8.100787 -21.958139 11.757473
RightToeBase 4.135831 -0.000000 -0.000000
3179
root 25.631208 33.077842 -3.565942 363.909187 -67.699475 -694.126197
Spine -16.488683 -18.511846 0.600043
Head 15.325834 -11.232948 -0.834131
LeftShoulder -16.715238 35.539884 27.935108
LeftArm 77.119192 -61.905739 -74.608289
LeftForeArm 6.312727 -0.000000 38.044158
LeftHand 16.118492 -0.000000 15.819571
LeftHandThumb1 -26.253704 0.000000 33.147579
RightShoulder -8.722513 8.821590 -36.915654
RightArm 16.120051 17.190167 34.684408
RightForeArm -20.489846 -0.000000 33.060203
RightHand 13.075053 -0.000000 -12.742385
RightHandThumb1 -24.326973 -0.000000 -32.862282
LeftUpLeg -4.300989 -4.070868 -3.824961
LeftLeg 4.807543 -0.000000 -0.000000
LeftFoot 0.610868 8.048297 -26.080486
LeftToeBase -15.653180 -0.000000 0.000000
RightUpLeg -36.873043 -15.563145 4.625787
RightLeg 3.558537 -0.000000 -0.000000
RightFoot -8.125153 -21.784136 11.749875
RightToeBase 4.203048 -0.000000 -0.000000
3180
root 25.689915 33.050935 -3.559107 364.113411 -68.207150 -694.840709
Spine -16.593838 -18.223647 0.754270
Head 15.785143 -10.972232 -0.760760
LeftShoulder -16.732480 35.299542 28.280794
LeftArm 76.891654 -62.438996 -74.175963
LeftForeArm 6.353960 -0.000000 38.118682
LeftHand 16.110413 0.000000 16.143596
LeftHandThumb1 -26.253704 0.000000 33.147579
RightShoulder -8.801979 9.156053 -37.221835
RightArm 16.237447 17.129289 34.333366
RightForeArm -20.801022 -0.000000 32.688082
RightHand 12.859261 -0.000000 -12.743414
RightHandThumb1 -24.326973 -0.000000 -32.862282
LeftUpLeg -4.127441 -4.183422 -3.746299
LeftLeg 4.847451 -0.000000 -0.000000
LeftFoot 1.115935 7.498936 -25.337620
LeftToeBase -17.062567 -0.000000 0.000000
RightUpLeg -36.759684 -15.308624 4.883515
RightLeg 4.006028 -0.000000 -0.000000
RightFoot -8.211013 -21.568580 11.851707
RightToeBase 4.402788 -0.000000 -0.000000
3181
root 25.752102 33.024495 -3.549841 364.262436 -68.698880 -695.491111
Spine -16.679486 -17.972498 0.898369
Head 16.215144 -10.708879 -0.686718
LeftShoulder -16.756558 35.060455 28.598576
LeftArm 76.669312 -63.017580 -73.793536
LeftForeArm 6.473695 -0.000000 38.245283
LeftHand 16.104929 0.000000 16.207396
LeftHandThumb1 -26.253704 0.000000 33.147579
RightShoulder -8.868940 9.482715 -37.497139
RightArm 16.443165 16.970016 33.916568
RightForeArm -21.273769 -0.000000 32.292090
RightHand 12.320796 0.000000 -13.316697
RightHandThumb1 -24.326973 -0.000000 -32.862282
LeftUpLeg -3.946365 -4.269066 -3.719996
LeftLeg 4.901333 -0.000000 -0.000000
LeftFoot 1.921422 7.162263 -23.727976
LeftToeBase -19.074751 -0.000000 0.000000
RightUpLeg -36.650831 -15.067666 5.086544
RightLeg 4.467314 -0.000000 -0.000000
RightFoot -8.315750 -21.324859 12.067253
RightToeBase 4.411128 -0.000000 -0.000000
